<?xml version="1.0" encoding="UTF-8" standalone="no"?>
<svg width="74px" height="74px" viewBox="0 0 74 74" version="1.1" xmlns="http://www.w3.org/2000/svg" xmlns:xlink="http://www.w3.org/1999/xlink">
    <!-- Generator: Sketch 41.1 (35376) - http://www.bohemiancoding.com/sketch -->
    <title>Moon Group</title>
    <desc>Created with Sketch.</desc>
    <defs></defs>
    <g id="Prod" stroke="none" stroke-width="1" fill="none" fill-rule="evenodd">
        <g id="Artboard-2-Copy-2" transform="translate(-116.000000, -105.000000)">
            <g id="Moon-Group" transform="translate(117.000000, 106.000000)">
                <path d="M6.86193534,34.0317467 C5.99045795,34.9032241 6.57373188,34.4138431 6.57373188,34.4138431 C6.3393062,35.7344357 6.11468696,35.7039074 5.7248014,34.4138431 C5.7248014,34.4138431 6.30807533,34.9032241 5.43659793,34.0317467 C4.56512054,33.1602693 5.05450153,33.7435432 5.05450153,33.7435432 C3.7339089,33.5091175 3.76443718,33.2844983 5.05450153,32.8946127 C5.05450153,32.8946127 4.56512054,33.4778866 5.43659793,32.6064093 C6.30807533,31.7349319 5.7248014,32.2243129 5.7248014,32.2243129 C5.95922708,30.9037202 6.18384631,30.9342485 6.57373188,32.2243129 C6.57373188,32.2243129 5.99045795,31.7349319 6.86193534,32.6064093 C7.73341274,33.4778866 7.24403174,32.8946127 7.24403174,32.8946127 C8.56462437,33.1290384 8.5340961,33.3536576 7.24403174,33.7435432 C7.24403174,33.7435432 7.73341274,33.1602693 6.86193534,34.0317467 L6.86193534,34.0317467 Z" id="Star-1-Copy-3" stroke="#4D158F"></path>
                <path d="M60.7700069,38.7291905 C59.8985295,39.6006679 60.4818034,39.1112869 60.4818034,39.1112869 C60.2473777,40.4318796 60.0227585,40.4013513 59.6328729,39.1112869 C59.6328729,39.1112869 60.2161468,39.6006679 59.3446694,38.7291905 C58.4731921,37.8577131 58.962573,38.4409871 58.962573,38.4409871 C57.6419804,38.2065614 57.6725087,37.9819422 58.962573,37.5920566 C58.962573,37.5920566 58.4731921,38.1753305 59.3446694,37.3038531 C60.2161468,36.4323757 59.6328729,36.9217567 59.6328729,36.9217567 C59.8672986,35.6011641 60.0919178,35.6316924 60.4818034,36.9217567 C60.4818034,36.9217567 59.8985295,36.4323757 60.7700069,37.3038531 C61.6414842,38.1753305 61.1521033,37.5920566 61.1521033,37.5920566 C62.4726959,37.8264823 62.4421676,38.0511015 61.1521033,38.4409871 C61.1521033,38.4409871 61.6414842,37.8577131 60.7700069,38.7291905 L60.7700069,38.7291905 Z" id="Star-1-Copy-5" stroke="#4D158F"></path>
                <circle id="Oval-9" stroke="#4D158F" cx="36" cy="36" r="16.9811321"></circle>
                <path d="M28.5977844,62.5600485 C27.726307,63.4315259 28.3095809,62.942145 28.3095809,62.942145 C28.0751553,64.2627376 27.850536,64.2322093 27.4606505,62.942145 C27.4606505,62.942145 28.0439244,63.4315259 27.172447,62.5600485 C26.3009696,61.6885712 26.7903506,62.2718451 26.7903506,62.2718451 C25.469758,62.0374194 25.5002862,61.8128002 26.7903506,61.4229146 C26.7903506,61.4229146 26.3009696,62.0061885 27.172447,61.1347111 C28.0439244,60.2632337 27.4606505,60.7526147 27.4606505,60.7526147 C27.6950761,59.4320221 27.9196954,59.4625504 28.3095809,60.7526147 C28.3095809,60.7526147 27.726307,60.2632337 28.5977844,61.1347111 C29.4692618,62.0061885 28.9798808,61.4229146 28.9798808,61.4229146 C30.3004734,61.6573403 30.2699452,61.8819595 28.9798808,62.2718451 C28.9798808,62.2718451 29.4692618,61.6885712 28.5977844,62.5600485 L28.5977844,62.5600485 Z" id="Star-1-Copy-2" stroke="#4D158F"></path>
                <path d="M50.3336335,59.8430674 C49.4621561,60.7145448 50.04543,60.2251638 50.04543,60.2251638 C49.8110043,61.5457564 49.5863851,61.5152282 49.1964995,60.2251638 C49.1964995,60.2251638 49.7797734,60.7145448 48.908296,59.8430674 C48.0368187,58.97159 48.5261996,59.554864 48.5261996,59.554864 C47.205607,59.3204383 47.2361353,59.095819 48.5261996,58.7059335 C48.5261996,58.7059335 48.0368187,59.2892074 48.908296,58.41773 C49.7797734,57.5462526 49.1964995,58.0356336 49.1964995,58.0356336 C49.4309252,56.715041 49.6555444,56.7455693 50.04543,58.0356336 C50.04543,58.0356336 49.4621561,57.5462526 50.3336335,58.41773 C51.2051108,59.2892074 50.7157299,58.7059335 50.7157299,58.7059335 C52.0363225,58.9403592 52.0057942,59.1649784 50.7157299,59.554864 C50.7157299,59.554864 51.2051108,58.97159 50.3336335,59.8430674 L50.3336335,59.8430674 Z" id="Star-1-Copy-6" stroke="#4D158F"></path>
                <path d="M19.0883504,15.0128787 C18.216873,15.8843561 18.800147,15.3949751 18.800147,15.3949751 C18.5657213,16.7155678 18.3411021,16.6850395 17.9512165,15.3949751 C17.9512165,15.3949751 18.5344904,15.8843561 17.663013,15.0128787 C16.7915356,14.1414013 17.2809166,14.7246753 17.2809166,14.7246753 C15.960324,14.4902496 15.9908523,14.2656304 17.2809166,13.8757448 C17.2809166,13.8757448 16.7915356,14.4590187 17.663013,13.5875413 C18.5344904,12.7160639 17.9512165,13.2054449 17.9512165,13.2054449 C18.1856422,11.8848523 18.4102614,11.9153806 18.800147,13.2054449 C18.800147,13.2054449 18.216873,12.7160639 19.0883504,13.5875413 C19.9598278,14.4590187 19.4704468,13.8757448 19.4704468,13.8757448 C20.7910395,14.1101705 20.7605112,14.3347897 19.4704468,14.7246753 C19.4704468,14.7246753 19.9598278,14.1414013 19.0883504,15.0128787 L19.0883504,15.0128787 Z" id="Star-1-Copy-4" stroke="#4D158F"></path>
                <path d="M48.9751429,10.937407 C48.1036655,11.8088844 48.6869394,11.3195034 48.6869394,11.3195034 C48.4525137,12.6400961 48.2278945,12.6095678 47.8380089,11.3195034 C47.8380089,11.3195034 48.4212829,11.8088844 47.5498055,10.937407 C46.6783281,10.0659296 47.1677091,10.6492036 47.1677091,10.6492036 C45.8471165,10.4147779 45.8776447,10.1901587 47.1677091,9.8002731 C47.1677091,9.8002731 46.6783281,10.383547 47.5498055,9.51206963 C48.4212829,8.64059224 47.8380089,9.12997323 47.8380089,9.12997323 C48.0724346,7.8093806 48.2970539,7.83990888 48.6869394,9.12997323 C48.6869394,9.12997323 48.1036655,8.64059224 48.9751429,9.51206963 C49.8466203,10.383547 49.3572393,9.8002731 49.3572393,9.8002731 C50.6778319,10.0346988 50.6473036,10.259318 49.3572393,10.6492036 C49.3572393,10.6492036 49.8466203,10.0659296 48.9751429,10.937407 L48.9751429,10.937407 Z" id="Star-1-Copy-7" stroke="#4D158F"></path>
                <ellipse id="Oval-1" stroke="#4D158F" cx="36" cy="36" rx="36" ry="36"></ellipse>
                <path d="M40.3986206,30.6434084 C40.3970298,30.6052377 40.3962264,30.5668636 40.3962264,30.5283019 C40.3962264,29.0277546 41.6126603,27.8113208 43.1132075,27.8113208 C44.6137548,27.8113208 45.8301887,29.0277546 45.8301887,30.5283019 C45.8301887,32.0288491 44.6137548,33.245283 43.1132075,33.245283 C43.0746458,33.245283 43.0362717,33.2444797 42.998101,33.2428888 C43.0726544,33.0311121 43.1132075,32.8033108 43.1132075,32.5660377 C43.1132075,31.4406273 42.2008821,30.5283019 41.0754717,30.5283019 C40.8381986,30.5283019 40.6103973,30.568855 40.3986206,30.6434084 Z" id="Combined-Shape" stroke="#4D158F"></path>
                <ellipse id="Path" stroke="#4D158F" cx="41.0754717" cy="32.5660377" rx="2.03773585" ry="2.03773585"></ellipse>
                <ellipse id="Path-Copy-5" stroke="#4D158F" transform="translate(28.908176, 27.707568) rotate(-261.000000) translate(-28.908176, -27.707568) " cx="28.908176" cy="27.7075683" rx="1.9641813" ry="1.9641813"></ellipse>
                <ellipse id="Path-Copy-2" fill="#4D158F" transform="translate(24.519487, 35.595496) rotate(-261.000000) translate(-24.519487, -35.595496) " cx="24.519487" cy="35.5954958" rx="1.35000002" ry="1.06408946"></ellipse>
                <ellipse id="Path-Copy-4" fill="#4D158F" transform="translate(42.276502, 43.421989) rotate(-261.000000) translate(-42.276502, -43.421989) " cx="42.2765021" cy="43.4219893" rx="1.35000002" ry="1.06408946"></ellipse>
                <ellipse id="Path-Copy-3" fill="#4D158F" transform="translate(39.666120, 23.252400) rotate(-261.000000) translate(-39.666120, -23.252400) " cx="39.6661197" cy="23.2524002" rx="1.35000002" ry="1.06408946"></ellipse>
                <circle id="Oval-11-Copy-2" stroke="#4D158F" transform="translate(32.744561, 44.594405) rotate(-261.000000) translate(-32.744561, -44.594405) " cx="32.7445614" cy="44.5944046" r="3.58078962"></circle>
            </g>
        </g>
    </g>
</svg>