<?xml version="1.0" encoding="UTF-8" standalone="no"?>
<svg width="74px" height="74px" viewBox="0 0 74 74" version="1.1" xmlns="http://www.w3.org/2000/svg" xmlns:xlink="http://www.w3.org/1999/xlink">
    <!-- Generator: Sketch 41.1 (35376) - http://www.bohemiancoding.com/sketch -->
    <title>Shower Group</title>
    <desc>Created with Sketch.</desc>
    <defs></defs>
    <g id="Prod" stroke="none" stroke-width="1" fill="none" fill-rule="evenodd">
        <g id="Artboard-2-Copy-2" transform="translate(-24.000000, -101.000000)" stroke="#4D158F">
            <g id="Shower-Group" transform="translate(25.000000, 102.000000)">
                <path d="M24.6332386,28.7087103 C22.749904,30.5920448 24.0104071,29.5344521 24.0104071,29.5344521 C23.5037939,32.3883617 23.0183732,32.3223876 22.1757983,29.5344521 C22.1757983,29.5344521 23.4363014,30.5920448 21.5529668,28.7087103 C19.6696323,26.8253757 20.727225,28.0858788 20.727225,28.0858788 C17.8733154,27.5792656 17.9392895,27.0938449 20.727225,26.25127 C20.727225,26.25127 19.6696323,27.5117731 21.5529668,25.6284385 C23.4363014,23.745104 22.1757983,24.8026967 22.1757983,24.8026967 C22.6824115,21.9487871 23.1678322,22.0147612 24.0104071,24.8026967 C24.0104071,24.8026967 22.749904,23.745104 24.6332386,25.6284385 C26.5165731,27.5117731 25.4589804,26.25127 25.4589804,26.25127 C28.31289,26.7578832 28.2469159,27.2433039 25.4589804,28.0858788 C25.4589804,28.0858788 26.5165731,26.8253757 24.6332386,28.7087103 L24.6332386,28.7087103 Z" id="Star-1" transform="translate(23.093103, 27.168574) rotate(-14.000000) translate(-23.093103, -27.168574) "></path>
                <path d="M23.274748,51.8030499 C21.3914135,53.6863844 22.6519165,52.6287917 22.6519165,52.6287917 C22.1453033,55.4827014 21.6598826,55.4167272 20.8173077,52.6287917 C20.8173077,52.6287917 22.0778108,53.6863844 20.1944763,51.8030499 C18.3111417,49.9197154 19.3687344,51.1802184 19.3687344,51.1802184 C16.5148248,50.6736052 16.5807989,50.1881845 19.3687344,49.3456096 C19.3687344,49.3456096 18.3111417,50.6061127 20.1944763,48.7227782 C22.0778108,46.8394436 20.8173077,47.8970363 20.8173077,47.8970363 C21.323921,45.0431267 21.8093417,45.1091008 22.6519165,47.8970363 C22.6519165,47.8970363 21.3914135,46.8394436 23.274748,48.7227782 C25.1580826,50.6061127 24.1004899,49.3456096 24.1004899,49.3456096 C26.9543995,49.8522229 26.8884254,50.3376436 24.1004899,51.1802184 C24.1004899,51.1802184 25.1580826,49.9197154 23.274748,51.8030499 L23.274748,51.8030499 Z" id="Star-1-Copy" transform="translate(21.734612, 50.262914) rotate(-14.000000) translate(-21.734612, -50.262914) "></path>
                <path d="M42.2936159,53.1615405 C40.4102814,55.044875 41.6707845,53.9872823 41.6707845,53.9872823 C41.1641712,56.8411919 40.6787505,56.7752178 39.8361757,53.9872823 C39.8361757,53.9872823 41.0966788,55.044875 39.2133442,53.1615405 C37.3300097,51.2782059 38.3876024,52.538709 38.3876024,52.538709 C35.5336927,52.0320958 35.5996669,51.5466751 38.3876024,50.7041002 C38.3876024,50.7041002 37.3300097,51.9646033 39.2133442,50.0812687 C41.0966788,48.1979342 39.8361757,49.2555269 39.8361757,49.2555269 C40.3427889,46.4016173 40.8282096,46.4675914 41.6707845,49.2555269 C41.6707845,49.2555269 40.4102814,48.1979342 42.2936159,50.0812687 C44.1769505,51.9646033 43.1193578,50.7041002 43.1193578,50.7041002 C45.9732674,51.2107134 45.9072933,51.6961341 43.1193578,52.538709 C43.1193578,52.538709 44.1769505,51.2782059 42.2936159,53.1615405 L42.2936159,53.1615405 Z" id="Star-1-Copy-7" transform="translate(40.753480, 51.621405) rotate(-14.000000) translate(-40.753480, -51.621405) "></path>
                <path d="M10.937407,27.2392938 C10.0659296,28.1107712 10.6492036,27.6213902 10.6492036,27.6213902 C10.4147779,28.9419829 10.1901587,28.9114546 9.8002731,27.6213902 C9.8002731,27.6213902 10.383547,28.1107712 9.51206963,27.2392938 C8.64059224,26.3678164 9.12997323,26.9510904 9.12997323,26.9510904 C7.8093806,26.7166647 7.83990888,26.4920455 9.12997323,26.1021599 C9.12997323,26.1021599 8.64059224,26.6854338 9.51206963,25.8139564 C10.383547,24.942479 9.8002731,25.43186 9.8002731,25.43186 C10.0346988,24.1112674 10.259318,24.1417957 10.6492036,25.43186 C10.6492036,25.43186 10.0659296,24.942479 10.937407,25.8139564 C11.8088844,26.6854338 11.3195034,26.1021599 11.3195034,26.1021599 C12.6400961,26.3365856 12.6095678,26.5612048 11.3195034,26.9510904 C11.3195034,26.9510904 11.8088844,26.3678164 10.937407,27.2392938 L10.937407,27.2392938 Z" id="Star-1-Copy-3"></path>
                <path d="M32.6732561,63.9185391 C31.8017787,64.7900165 32.3850526,64.3006355 32.3850526,64.3006355 C32.150627,65.6212281 31.9260077,65.5906999 31.5361222,64.3006355 C31.5361222,64.3006355 32.1193961,64.7900165 31.2479187,63.9185391 C30.3764413,63.0470617 30.8658223,63.6303356 30.8658223,63.6303356 C29.5452297,63.39591 29.5757579,63.1712907 30.8658223,62.7814052 C30.8658223,62.7814052 30.3764413,63.3646791 31.2479187,62.4932017 C32.1193961,61.6217243 31.5361222,62.1111053 31.5361222,62.1111053 C31.7705478,60.7905127 31.9951671,60.821041 32.3850526,62.1111053 C32.3850526,62.1111053 31.8017787,61.6217243 32.6732561,62.4932017 C33.5447335,63.3646791 33.0553525,62.7814052 33.0553525,62.7814052 C34.3759451,63.0158308 34.3454168,63.2404501 33.0553525,63.6303356 C33.0553525,63.6303356 33.5447335,63.0470617 32.6732561,63.9185391 L32.6732561,63.9185391 Z" id="Star-1-Copy-5"></path>
                <path d="M58.4845769,15.0128787 C57.6130995,15.8843561 58.1963734,15.3949751 58.1963734,15.3949751 C57.9619477,16.7155678 57.7373285,16.6850395 57.3474429,15.3949751 C57.3474429,15.3949751 57.9307168,15.8843561 57.0592394,15.0128787 C56.187762,14.1414013 56.677143,14.7246753 56.677143,14.7246753 C55.3565504,14.4902496 55.3870787,14.2656304 56.677143,13.8757448 C56.677143,13.8757448 56.187762,14.4590187 57.0592394,13.5875413 C57.9307168,12.7160639 57.3474429,13.2054449 57.3474429,13.2054449 C57.5818686,11.8848523 57.8064878,11.9153806 58.1963734,13.2054449 C58.1963734,13.2054449 57.6130995,12.7160639 58.4845769,13.5875413 C59.3560542,14.4590187 58.8666733,13.8757448 58.8666733,13.8757448 C60.1872659,14.1101705 60.1567376,14.3347897 58.8666733,14.7246753 C58.8666733,14.7246753 59.3560542,14.1414013 58.4845769,15.0128787 L58.4845769,15.0128787 Z" id="Star-1-Copy-2"></path>
                <ellipse id="Oval-1" cx="36" cy="36" rx="36" ry="36"></ellipse>
                <path d="M25.1320755,45.509434 L41.4339623,29.2075472" id="Line" stroke-linecap="round"></path>
                <path d="M27.8490566,22.4150943 L44.1509434,6.11320755" id="Line-Copy-2" stroke-linecap="round"></path>
                <path d="M44.1509434,45.509434 L60.4528302,29.2075472" id="Line-Copy-4" stroke-linecap="round"></path>
                <path d="M30.5660377,45.509434 L41.9207551,34.1547166" id="Line-Copy" stroke-linecap="round"></path>
                <path d="M33.2830189,22.4150943 L44.6377362,11.060377" id="Line-Copy-3" stroke-linecap="round"></path>
                <path d="M48.9056604,46.6754721 L60.2603777,35.3207547" id="Line-Copy-5" stroke-linecap="round"></path>
            </g>
        </g>
    </g>
</svg>