<?xml version="1.0" encoding="UTF-8" standalone="no"?>
<svg width="74px" height="74px" viewBox="0 0 74 74" version="1.1" xmlns="http://www.w3.org/2000/svg" xmlns:xlink="http://www.w3.org/1999/xlink">
    <!-- Generator: Sketch 41.1 (35376) - http://www.bohemiancoding.com/sketch -->
    <title>Star Group</title>
    <desc>Created with Sketch.</desc>
    <defs>
        <polygon id="path-1" points="20.2040816 37.8367347 44.0816327 36 39.9344791 49.2244898 24.979592 47.0204085"></polygon>
        <mask id="mask-2" maskContentUnits="userSpaceOnUse" maskUnits="objectBoundingBox" x="0" y="0" width="22.9742644" height="12.9191152" fill="white">
            <use xlink:href="#path-1"></use>
        </mask>
    </defs>
    <g id="Prod" stroke="none" stroke-width="1" fill="none" fill-rule="evenodd">
        <g id="Artboard-2-Copy" transform="translate(-24.000000, -17.000000)">
            <g id="Star-Group" transform="translate(25.000000, 18.000000)">
                <path d="M28.8722406,20.9929911 C28.0007632,21.8644684 28.5840371,21.3750875 28.5840371,21.3750875 C28.3496115,22.6956801 28.1249922,22.6651518 27.7351067,21.3750875 C27.7351067,21.3750875 28.3183806,21.8644684 27.4469032,20.9929911 C26.5754258,20.1215137 27.0648068,20.7047876 27.0648068,20.7047876 C25.7442142,20.4703619 25.7747424,20.2457427 27.0648068,19.8558571 C27.0648068,19.8558571 26.5754258,20.439131 27.4469032,19.5676536 C28.3183806,18.6961763 27.7351067,19.1855572 27.7351067,19.1855572 C27.9695323,17.8649646 28.1941516,17.8954929 28.5840371,19.1855572 C28.5840371,19.1855572 28.0007632,18.6961763 28.8722406,19.5676536 C29.743718,20.439131 29.254337,19.8558571 29.254337,19.8558571 C30.5749296,20.0902828 30.5444014,20.314902 29.254337,20.7047876 C29.254337,20.7047876 29.743718,20.1215137 28.8722406,20.9929911 L28.8722406,20.9929911 Z" id="Star-1" stroke="#FFFFFF"></path>
                <path d="M11.5455171,26.2393946 C10.6740397,27.110872 11.2573136,26.621491 11.2573136,26.621491 C11.0228879,27.9420836 10.7982687,27.9115554 10.4083831,26.621491 C10.4083831,26.621491 10.991657,27.110872 10.1201796,26.2393946 C9.24870225,25.3679172 9.73808325,25.9511911 9.73808325,25.9511911 C8.41749062,25.7167655 8.4480189,25.4921462 9.73808325,25.1022607 C9.73808325,25.1022607 9.24870225,25.6855346 10.1201796,24.8140572 C10.991657,23.9425798 10.4083831,24.4319608 10.4083831,24.4319608 C10.6428088,23.1113682 10.867428,23.1418964 11.2573136,24.4319608 C11.2573136,24.4319608 10.6740397,23.9425798 11.5455171,24.8140572 C12.4169945,25.6855346 11.9276135,25.1022607 11.9276135,25.1022607 C13.2482061,25.3366863 13.2176778,25.5613056 11.9276135,25.9511911 C11.9276135,25.9511911 12.4169945,25.3679172 11.5455171,26.2393946 L11.5455171,26.2393946 Z" id="Star-1-Copy-3" stroke="#FFFFFF"></path>
                <use id="Rectangle-7" stroke="#FFFFFF" mask="url(#mask-2)" stroke-width="2" xlink:href="#path-1"></use>
                <path d="M43.7142857,36.3673469 L46.6530612,26.8163265" id="Line" stroke="#FFFFFF" stroke-linecap="square"></path>
                <path d="M47.1194647,26.8448011 L55.1960224,23.0704679" id="Line-Copy" stroke="#FFFFFF" stroke-linecap="square"></path>
                <ellipse id="Oval-2" fill="#FFFFFF" cx="21.3367347" cy="38.9693878" rx="1.5" ry="1.5"></ellipse>
                <ellipse id="Oval-2-Copy" fill="#FFFFFF" cx="25.3686946" cy="47.0510204" rx="1.5" ry="1.5"></ellipse>
                <ellipse id="Oval-2-Copy-2" fill="#FFFFFF" cx="38.9693878" cy="48.255102" rx="1.5" ry="1.5"></ellipse>
                <ellipse id="Oval-2-Copy-3" fill="#FFFFFF" cx="43.377551" cy="36.7653061" rx="1.5" ry="1.5"></ellipse>
                <ellipse id="Oval-2-Copy-4" fill="#FFFFFF" cx="47.0510204" cy="27.2142857" rx="1.5" ry="1.5"></ellipse>
                <ellipse id="Oval-2-Copy-5" fill="#FFFFFF" cx="55.8673469" cy="22.5408163" rx="1.5" ry="1.5"></ellipse>
                <path d="M60.7700069,38.7291905 C59.8985295,39.6006679 60.4818034,39.1112869 60.4818034,39.1112869 C60.2473777,40.4318796 60.0227585,40.4013513 59.6328729,39.1112869 C59.6328729,39.1112869 60.2161468,39.6006679 59.3446694,38.7291905 C58.4731921,37.8577131 58.962573,38.4409871 58.962573,38.4409871 C57.6419804,38.2065614 57.6725087,37.9819422 58.962573,37.5920566 C58.962573,37.5920566 58.4731921,38.1753305 59.3446694,37.3038531 C60.2161468,36.4323757 59.6328729,36.9217567 59.6328729,36.9217567 C59.8672986,35.6011641 60.0919178,35.6316924 60.4818034,36.9217567 C60.4818034,36.9217567 59.8985295,36.4323757 60.7700069,37.3038531 C61.6414842,38.1753305 61.1521033,37.5920566 61.1521033,37.5920566 C62.4726959,37.8264823 62.4421676,38.0511015 61.1521033,38.4409871 C61.1521033,38.4409871 61.6414842,37.8577131 60.7700069,38.7291905 L60.7700069,38.7291905 Z" id="Star-1-Copy-5" stroke="#FFFFFF"></path>
                <path d="M52.6883742,54.157762 C51.8168968,55.0292394 52.4001707,54.5398584 52.4001707,54.5398584 C52.1657451,55.860451 51.9411258,55.8299227 51.5512403,54.5398584 C51.5512403,54.5398584 52.1345142,55.0292394 51.2630368,54.157762 C50.3915594,53.2862846 50.8809404,53.8695585 50.8809404,53.8695585 C49.5603478,53.6351328 49.590876,53.4105136 50.8809404,53.020628 C50.8809404,53.020628 50.3915594,53.6039019 51.2630368,52.7324245 C52.1345142,51.8609472 51.5512403,52.3503281 51.5512403,52.3503281 C51.7856659,51.0297355 52.0102852,51.0602638 52.4001707,52.3503281 C52.4001707,52.3503281 51.8168968,51.8609472 52.6883742,52.7324245 C53.5598516,53.6039019 53.0704706,53.020628 53.0704706,53.020628 C54.3910632,53.2550537 54.360535,53.4796729 53.0704706,53.8695585 C53.0704706,53.8695585 53.5598516,53.2862846 52.6883742,54.157762 L52.6883742,54.157762 Z" id="Star-1-Copy-8" stroke="#FFFFFF"></path>
                <path d="M33.5863334,62.9740885 C32.714856,63.8455659 33.2981299,63.3561849 33.2981299,63.3561849 C33.0637042,64.6767775 32.839085,64.6462492 32.4491994,63.3561849 C32.4491994,63.3561849 33.0324734,63.8455659 32.160996,62.9740885 C31.2895186,62.1026111 31.7788996,62.685885 31.7788996,62.685885 C30.4583069,62.4514593 30.4888352,62.2268401 31.7788996,61.8369545 C31.7788996,61.8369545 31.2895186,62.4202285 32.160996,61.5487511 C33.0324734,60.6772737 32.4491994,61.1666547 32.4491994,61.1666547 C32.6836251,59.846062 32.9082444,59.8765903 33.2981299,61.1666547 C33.2981299,61.1666547 32.714856,60.6772737 33.5863334,61.5487511 C34.4578108,62.4202285 33.9684298,61.8369545 33.9684298,61.8369545 C35.2890224,62.0713802 35.2584941,62.2959995 33.9684298,62.685885 C33.9684298,62.685885 34.4578108,62.1026111 33.5863334,62.9740885 L33.5863334,62.9740885 Z" id="Star-1-Copy-6" stroke="#FFFFFF"></path>
                <path d="M12.2802109,50.4842926 C11.4087335,51.35577 11.9920075,50.866389 11.9920075,50.866389 C11.7575818,52.1869816 11.5329626,52.1564533 11.143077,50.866389 C11.143077,50.866389 11.7263509,51.35577 10.8548735,50.4842926 C9.98339613,49.6128152 10.4727771,50.1960891 10.4727771,50.1960891 C9.1521845,49.9616634 9.18271277,49.7370442 10.4727771,49.3471586 C10.4727771,49.3471586 9.98339613,49.9304326 10.8548735,49.0589552 C11.7263509,48.1874778 11.143077,48.6768588 11.143077,48.6768588 C11.3775027,47.3562661 11.6021219,47.3867944 11.9920075,48.6768588 C11.9920075,48.6768588 11.4087335,48.1874778 12.2802109,49.0589552 C13.1516883,49.9304326 12.6623073,49.3471586 12.6623073,49.3471586 C13.9829,49.5815843 13.9523717,49.8062035 12.6623073,50.1960891 C12.6623073,50.1960891 13.1516883,49.6128152 12.2802109,50.4842926 L12.2802109,50.4842926 Z" id="Star-1-Copy-4" stroke="#FFFFFF"></path>
                <path d="M43.0957673,9.85433492 C42.22429,10.7258123 42.8075639,10.2364313 42.8075639,10.2364313 C42.5731382,11.557024 42.348519,11.5264957 41.9586334,10.2364313 C41.9586334,10.2364313 42.5419073,10.7258123 41.6704299,9.85433492 C40.7989525,8.98285753 41.2883335,9.56613146 41.2883335,9.56613146 C39.9677409,9.33170578 39.9982692,9.10708655 41.2883335,8.71720098 C41.2883335,8.71720098 40.7989525,9.30047491 41.6704299,8.42899752 C42.5419073,7.55752012 41.9586334,8.04690111 41.9586334,8.04690111 C42.1930591,6.72630849 42.4176783,6.75683676 42.8075639,8.04690111 C42.8075639,8.04690111 42.22429,7.55752012 43.0957673,8.42899752 C43.9672447,9.30047491 43.4778637,8.71720098 43.4778637,8.71720098 C44.7984564,8.95162666 44.7679281,9.17624589 43.4778637,9.56613146 C43.4778637,9.56613146 43.9672447,8.98285753 43.0957673,9.85433492 L43.0957673,9.85433492 Z" id="Star-1-Copy-2" stroke="#FFFFFF"></path>
                <ellipse id="Oval-1" stroke="#FFFFFF" cx="36" cy="36" rx="36" ry="36"></ellipse>
            </g>
        </g>
    </g>
</svg>